<svg width="151" height="46" viewBox="0 0 151 46" fill="none" xmlns="http://www.w3.org/2000/svg">
<path d="M14.7665 22.0843C15.9995 22.3471 16.99 22.9637 17.738 23.9339C18.4859 24.884 18.8598 25.9756 18.8598 27.2086C18.8598 28.9875 18.2332 30.4025 16.9799 31.4536C15.7469 32.4845 14.0185 33 11.795 33H1.87992V11.7145H11.4614C13.6244 11.7145 15.3122 12.2097 16.5251 13.2002C17.7582 14.1907 18.3747 15.5349 18.3747 17.2329C18.3747 18.4862 18.0412 19.5272 17.3741 20.356C16.7272 21.1848 15.858 21.7609 14.7665 22.0843ZM7.06486 20.3257H10.4608C11.3098 20.3257 11.9567 20.1438 12.4014 19.7799C12.8663 19.3958 13.0988 18.84 13.0988 18.1122C13.0988 17.3845 12.8663 16.8286 12.4014 16.4446C11.9567 16.0605 11.3098 15.8685 10.4608 15.8685H7.06486V20.3257ZM10.8853 28.8157C11.7546 28.8157 12.4216 28.6236 12.8865 28.2396C13.3717 27.8353 13.6143 27.2592 13.6143 26.5112C13.6143 25.7633 13.3616 25.1771 12.8562 24.7526C12.3711 24.3281 11.6939 24.1159 10.8247 24.1159H7.06486V28.8157H10.8853ZM38.5741 16.0807V33H33.3892V30.6956C32.8636 31.4435 32.146 32.0499 31.2364 32.5149C30.3469 32.9596 29.3565 33.1819 28.2649 33.1819C26.9712 33.1819 25.8291 32.8989 24.8386 32.3329C23.8481 31.7467 23.0799 30.9078 22.5342 29.8163C21.9884 28.7247 21.7155 27.4411 21.7155 25.9655V16.0807H26.8701V25.2681C26.8701 26.4001 27.1632 27.2794 27.7494 27.906C28.3356 28.5327 29.124 28.846 30.1145 28.846C31.1252 28.846 31.9237 28.5327 32.5099 27.906C33.0961 27.2794 33.3892 26.4001 33.3892 25.2681V16.0807H38.5741ZM44.9061 14.3221C43.9964 14.3221 43.2485 14.0593 42.6623 13.5337C42.0963 12.988 41.8133 12.3209 41.8133 11.5325C41.8133 10.724 42.0963 10.0569 42.6623 9.53132C43.2485 8.98554 43.9964 8.71265 44.9061 8.71265C45.7955 8.71265 46.5232 8.98554 47.0892 9.53132C47.6754 10.0569 47.9685 10.724 47.9685 11.5325C47.9685 12.3209 47.6754 12.988 47.0892 13.5337C46.5232 14.0593 45.7955 14.3221 44.9061 14.3221ZM47.4834 16.0807V33H42.2984V16.0807H47.4834ZM56.4258 10.5622V33H51.2408V10.5622H56.4258ZM59.1523 24.51C59.1523 22.7716 59.4758 21.2454 60.1226 19.9315C60.7897 18.6176 61.6892 17.6069 62.8212 16.8994C63.9532 16.1919 65.2166 15.8382 66.6114 15.8382C67.7231 15.8382 68.7339 16.0706 69.6435 16.5355C70.5733 17.0005 71.3011 17.6271 71.8266 18.4155V10.5622H77.0116V33H71.8266V30.5743C71.3415 31.3829 70.6441 32.0297 69.7345 32.5149C68.845 33 67.804 33.2426 66.6114 33.2426C65.2166 33.2426 63.9532 32.8888 62.8212 32.1813C61.6892 31.4536 60.7897 30.4328 60.1226 29.1189C59.4758 27.7847 59.1523 26.2485 59.1523 24.51ZM71.8266 24.5404C71.8266 23.2467 71.4628 22.2258 70.7351 21.4779C70.0276 20.73 69.1584 20.356 68.1274 20.356C67.0965 20.356 66.2172 20.73 65.4895 21.4779C64.782 22.2056 64.4282 23.2163 64.4282 24.51C64.4282 25.8037 64.782 26.8347 65.4895 27.6028C66.2172 28.3507 67.0965 28.7247 68.1274 28.7247C69.1584 28.7247 70.0276 28.3507 70.7351 27.6028C71.4628 26.8549 71.8266 25.8341 71.8266 24.5404ZM82.5516 33.2122C81.925 33.2122 81.3994 33 80.9749 32.5755C80.5504 32.151 80.3381 31.6254 80.3381 30.9988C80.3381 30.3722 80.5504 29.8466 80.9749 29.4221C81.3994 28.9976 81.925 28.7853 82.5516 28.7853C83.158 28.7853 83.6735 28.9976 84.098 29.4221C84.5225 29.8466 84.7347 30.3722 84.7347 30.9988C84.7347 31.6254 84.5225 32.151 84.098 32.5755C83.6735 33 83.158 33.2122 82.5516 33.2122Z" fill="url(#paint0_linear_16_495)"/>
<path d="M121.196 25.1551V20.906C121.196 20.3236 121.082 19.7758 120.855 19.2626C120.638 18.7395 120.337 18.2854 119.952 17.9005C119.567 17.5156 119.113 17.2145 118.59 16.9974C118.077 16.7704 117.529 16.6569 116.947 16.6569C116.364 16.6569 115.812 16.7704 115.288 16.9974C114.775 17.2145 114.326 17.5156 113.941 17.9005C113.556 18.2854 113.25 18.7395 113.023 19.2626C112.806 19.7758 112.697 20.3236 112.697 20.906V25.1551H121.196ZM125.445 33.6385H121.196V29.3894H112.697V33.6385H108.463V20.906C108.463 19.7314 108.685 18.6309 109.129 17.6044C109.574 16.568 110.176 15.6649 110.936 14.895C111.706 14.1251 112.604 13.5181 113.63 13.074C114.667 12.6298 115.772 12.4077 116.947 12.4077C118.121 12.4077 119.222 12.6298 120.248 13.074C121.285 13.5181 122.188 14.1251 122.958 14.895C123.727 15.6649 124.334 16.568 124.779 17.6044C125.223 18.6309 125.445 19.7314 125.445 20.906V33.6385ZM149.933 23.112C149.933 24.1187 149.8 25.0909 149.533 26.0286C149.276 26.9564 148.911 27.8299 148.438 28.6492C147.964 29.4585 147.391 30.1988 146.72 30.87C146.049 31.5411 145.309 32.1185 144.499 32.6022C143.69 33.0759 142.816 33.4411 141.879 33.6978C140.941 33.9643 139.969 34.0975 138.962 34.0975C137.955 34.0975 136.983 33.9643 136.045 33.6978C135.118 33.4411 134.244 33.0759 133.425 32.6022C132.616 32.1185 131.875 31.5411 131.204 30.87C130.533 30.1988 129.956 29.4585 129.472 28.6492C128.998 27.8299 128.628 26.9564 128.362 26.0286C128.105 25.0909 127.977 24.1187 127.977 23.112C127.977 22.1052 128.105 21.133 128.362 20.1953C128.628 19.2577 128.998 18.3841 129.472 17.5748C129.956 16.7654 130.533 16.0252 131.204 15.354C131.875 14.6828 132.616 14.1103 133.425 13.6366C134.244 13.1628 135.118 12.7976 136.045 12.541C136.983 12.2745 137.955 12.1412 138.962 12.1412C139.969 12.1412 140.941 12.2745 141.879 12.541C142.816 12.7976 143.69 13.1628 144.499 13.6366C145.309 14.1103 146.049 14.6828 146.72 15.354C147.391 16.0252 147.964 16.7654 148.438 17.5748C148.911 18.3841 149.276 19.2577 149.533 20.1953C149.8 21.133 149.933 22.1052 149.933 23.112ZM145.713 23.112C145.713 22.1842 145.536 21.3107 145.18 20.4914C144.825 19.6623 144.341 18.9467 143.729 18.3447C143.127 17.7327 142.412 17.2491 141.583 16.8937C140.763 16.5384 139.89 16.3607 138.962 16.3607C138.024 16.3607 137.146 16.5384 136.327 16.8937C135.508 17.2491 134.792 17.7327 134.18 18.3447C133.568 18.9467 133.084 19.6623 132.729 20.4914C132.374 21.3107 132.196 22.1842 132.196 23.112C132.196 24.0398 132.374 24.9133 132.729 25.7325C133.084 26.5419 133.568 27.2525 134.18 27.8645C134.792 28.4764 135.508 28.9601 136.327 29.3154C137.146 29.6707 138.024 29.8484 138.962 29.8484C139.89 29.8484 140.763 29.6707 141.583 29.3154C142.412 28.9601 143.127 28.4764 143.729 27.8645C144.341 27.2525 144.825 26.5419 145.18 25.7325C145.536 24.9133 145.713 24.0398 145.713 23.112Z" fill="black"/>
<path fill-rule="evenodd" clip-rule="evenodd" d="M87.9318 30.4304L91.4317 26.0497C90.472 24.258 90.3852 21.8482 91.7307 20.1554C93.1615 18.355 95.8954 18.0429 97.9545 18.7638L94.8648 22.6514L97.1994 24.4941L100.289 20.6065C101.457 22.4491 101.774 25.1561 100.344 26.9565C99.0175 28.6232 96.6782 29.0938 94.7383 28.6109L90.8966 33.4746H96.0177C97.7874 33.4746 99.4046 33.1695 100.839 32.5592C102.242 31.949 103.371 31.0946 104.226 30.0572C105.08 29.0197 105.721 27.8908 106.148 26.6092C106.575 25.3277 106.758 24.0156 106.728 22.612C106.697 21.2695 106.453 19.9574 106.026 18.7369C105.568 17.5164 104.927 16.4179 104.073 15.411C103.219 14.4041 102.12 13.6107 100.717 13.0005C99.3131 12.4207 97.7569 12.1156 96.0177 12.1156H87.9318V30.4304Z" fill="url(#paint1_linear_16_495)"/>
<defs>
<linearGradient id="paint0_linear_16_495" x1="43.5" y1="0" x2="43.5" y2="45" gradientUnits="userSpaceOnUse">
<stop stop-color="#73CDFF"/>
<stop offset="1" stop-color="#4200FF"/>
</linearGradient>
<linearGradient id="paint1_linear_16_495" x1="97.3314" y1="12.1156" x2="97.3314" y2="33.4746" gradientUnits="userSpaceOnUse">
<stop stop-color="#73CDFF"/>
<stop offset="1" stop-color="#4200FF"/>
</linearGradient>
</defs>
</svg>
